<?xml version="1.0" encoding="utf-8"?>
<!-- Generator: Adobe Illustrator 19.2.1, SVG Export Plug-In . SVG Version: 6.00 Build 0)  -->
<svg version="1.1" xmlns="http://www.w3.org/2000/svg" xmlns:xlink="http://www.w3.org/1999/xlink" x="0px" y="0px"
	 viewBox="0 0 100 100" enable-background="new 0 0 100 100" xml:space="preserve">
<g id="football">
</g>
<g id="main" display="none">
</g>
<g id="hockey" display="none">
</g>
<g id="export">
	<g>
		<path fill="#FFFFFF" d="M48.9,97.6L50,98l1.1-0.4c36.4-12.9,47.1-38.9,47.5-40l0.4-1.1l-0.3-1.1c-7.7-24.4-6-41.1-6-41.2l0.3-2.4
			l-2.2-0.9C72.5,3.2,51.1,2.1,50.2,2L50,2l-0.2,0c-0.9,0-22.3,1.1-40.5,8.9l-2.2,0.9l0.2,2.4c0,0.2,1.6,16.8-6,41.2L1,56.5l0.4,1.1
			C1.9,58.7,12.5,84.6,48.9,97.6L48.9,97.6z"/>
		<g>
			<path fill="#F7F7F7" d="M84.8,17.5C69,10.8,50,9.9,50,9.9s-19,0.9-34.8,7.6c0,0,1.6,15.2-5.4,37.7c0,0,4,24.1,40.2,33.7
				c36.3-9.6,40.3-33.7,40.3-33.7C83.2,32.8,84.8,17.5,84.8,17.5"/>
			<path fill="#DDDDDD" d="M50,69.7c14.8,0,27.6-9.2,34.3-22.9C77.6,33.3,64.8,24,50,24c-14.8,0-27.6,9.2-34.3,22.9
				C22.4,60.5,35.2,69.7,50,69.7"/>
			<path fill="#F7F7F7" d="M50,64.8c12.2,0,22.9-7.2,28.4-17.9C72.9,36.2,62.2,29,50,29c-12.2,0-22.9,7.2-28.4,17.9
				C27.1,57.6,37.8,64.8,50,64.8"/>
			<path fill="#DDDDDD" d="M43,33v8.2c-1.1,0.1-2.1,0.3-3.2,0.5v-8.2C40.9,33.3,42,33.1,43,33"/>
			<path fill="#DDDDDD" d="M60.2,33.3v8.2c-1-0.2-2.1-0.3-3.2-0.4v-8.2C58,33,59.1,33.2,60.2,33.3"/>
			<path fill="#DDDDDD" d="M48.7,32.6v8.2c-1.1,0-2.1,0.1-3.2,0.2v-8.2C46.6,32.7,47.7,32.6,48.7,32.6"/>
			<path fill="#DDDDDD" d="M54.5,32.7v8.2c-1.1-0.1-2.1-0.1-3.2-0.1v-8.2C52.3,32.6,53.4,32.6,54.5,32.7"/>
			<path fill="#DDDDDD" d="M20.5,50.2c1.9-7,14.6-12.6,29.5-12.6c14.8,0,27.5,5.6,29.5,12.5c0.7-1.1,1.3-2.1,1.9-3.3
				c-0.1-0.1-0.1-0.2-0.2-0.4c-4.2-7-16.4-11.9-31.2-11.9c-14.8,0-27,5-31.2,12c0,0.1-0.1,0.2-0.2,0.3C19.2,48,19.8,49.1,20.5,50.2"
				/>
			<path fill="#DDDDDD" d="M50,11.8c2.4,0.2,18.3,1.3,32.8,6.5c-0.1,6.9,0.7,20.3,5.9,37.7C85.8,61.6,75.3,78.1,50,87.8
				c-12.5-4.8-22.8-11.7-30.9-20.7c-4.2-4.7-6.7-8.8-7.9-11.1c5.2-17.4,5.9-30.9,5.9-37.7C31.7,13.1,47.6,11.9,50,11.8 M50,5.4
				c0,0-21.6,1-39.4,8.6c0,0,1.8,17.1-6.2,42.5c0,0,10.1,25.5,45.6,38.1C85.4,82,95.6,56.5,95.6,56.5c-8-25.5-6.2-42.5-6.2-42.5
				C71.6,6.4,50,5.4,50,5.4"/>
		</g>
	</g>
</g>
<g id="baseball" display="none">
</g>
<g id="basketball" display="none">
</g>
<g id="Layer_8">
</g>
<g id="more" display="none">
</g>
</svg>
